<svg xmlns="http://www.w3.org/2000/svg" height="20px" viewBox="0 -960 960 960" width="20px" fill="#1D1D1F"><path d="M220.08-148.08v-471.01q0-24.97 17.67-42.48 17.67-17.51 42.65-17.51h269.38q24.98 0 42.48 17.66 17.51 17.66 17.51 42.61v470.73l-194.65-98.71-195.04 98.71Zm47.96-77.8 147.08-74.54 146.69 74.54v-392.93q0-5.38-3.46-8.84-3.47-3.47-8.85-3.47H280.35q-5.39 0-8.85 3.47-3.46 3.46-3.46 8.84v392.93ZM691.96-256v-495.65q0-5.39-3.46-8.85t-8.85-3.46H309.42v-47.96h370.23q24.96 0 42.62 17.65 17.65 17.66 17.65 42.62V-256h-47.96ZM268.04-631.12h293.77-293.77Z"/></svg>