<svg xmlns="http://www.w3.org/2000/svg" height="20px" viewBox="0 -960 960 960" width="20px" fill="#1D1D1F"><path d="m329.92-329.92 232.95-67.21 67.21-232.95-232.95 67.21-67.21 232.95Zm149.93-118.66q-13.04 1-22.16-8.55-9.11-9.56-9.11-23.02 0-13.04 9.26-22.16 9.27-9.11 22.31-9.11t22.16 9.26q9.11 9.27 9.11 22.31t-9.26 22.16q-9.27 9.11-22.31 9.11Zm.52 324.5q-73.43 0-138.34-27.82-64.92-27.83-113.66-76.6-48.73-48.77-76.51-113.51-27.78-64.74-27.78-138.36 0-73.69 27.82-138.1 27.83-64.42 76.6-113.16 48.77-48.73 113.51-76.51 64.74-27.78 138.36-27.78 73.69 0 138.1 27.82 64.42 27.83 113.16 76.6 48.73 48.77 76.51 113.28 27.78 64.51 27.78 137.85 0 73.43-27.82 138.34-27.83 64.92-76.6 113.66-48.77 48.73-113.28 76.51-64.51 27.78-137.85 27.78Z"/></svg>