<svg xmlns="http://www.w3.org/2000/svg" height="20px" viewBox="0 -960 960 960" width="20px" fill="#1D1D1F"><path d="M479.79-213.16q-21.04 0-35.61-14.78-14.56-14.77-14.56-35.81 0-21.04 14.78-35.61 14.78-14.56 35.81-14.56 21.04 0 35.61 14.78 14.56 14.78 14.56 35.81 0 21.04-14.78 35.61-14.78 14.56-35.81 14.56Zm0-216.46q-21.04 0-35.61-14.78-14.56-14.78-14.56-35.81 0-21.04 14.78-35.61 14.78-14.56 35.81-14.56 21.04 0 35.61 14.78 14.56 14.78 14.56 35.81 0 21.04-14.78 35.61-14.78 14.56-35.81 14.56Zm0-216.46q-21.04 0-35.61-14.78-14.56-14.78-14.56-35.81 0-21.04 14.78-35.61 14.78-14.56 35.81-14.56 21.04 0 35.61 14.78 14.56 14.77 14.56 35.81 0 21.04-14.78 35.61-14.78 14.56-35.81 14.56Z"/></svg>