<svg xmlns="http://www.w3.org/2000/svg" height="20px" viewBox="0 -960 960 960" width="20px" fill="#1D1D1F"><path d="M635.96-124.08q-43.58 0-73.86-30.29-30.29-30.29-30.29-73.86 0-10.62 5.65-30.16L299.42-405.23q-14.15 13.69-32.61 21.69-18.46 8-39.56 8-42.99 0-73.08-30.43-30.09-30.44-30.09-73.58t30.12-73.87q30.12-30.73 73.15-30.73 21.24 0 39.44 7.78 18.2 7.79 32.13 21.41L537.46-701.5q-2.57-7.11-4.11-14.5-1.54-7.39-1.54-15.96 0-43.32 30.29-73.64t73.77-30.32q43.48 0 73.76 30.36 30.29 30.36 30.29 73.73 0 43.59-30.33 73.96-30.33 30.37-73.66 30.37-21.28 0-39.39-8.1-18.1-8.09-32.27-22.29L326.23-511.04q2.38 7.69 4.02 15.36 1.63 7.66 1.63 15.93 0 8.28-1.38 15.58-1.39 7.3-3.77 14.65l237.54 147.21q14.08-14 32.28-22.19 18.2-8.19 39.38-8.19 43.33 0 73.66 30.49t30.33 73.82q0 43.73-30.32 74.01-30.32 30.29-73.64 30.29Z"/></svg>